/* XPM */
static char *b9ac00663c2141d78380e074d766b59dYntCg8AJw3jpVGBv[] = {
/* columns rows colors chars-per-pixel */
"16 16 144 2 ",
"   c None",
".  c #06040E",
"X  c #06050F",
"o  c #070613",
"O  c #080614",
"+  c #090615",
"@  c #0B0619",
"#  c #0C071B",
"$  c #0D071D",
"%  c #0B0A1C",
"&  c #080C1E",
"*  c #0C0B20",
"=  c #090D20",
"-  c #0B0D23",
";  c #0D0C24",
":  c #0E0E29",
">  c #100822",
",  c #100823",
"<  c #130A2B",
"1  c #140A2B",
"2  c #120D2B",
"3  c #15092D",
"4  c #15092E",
"5  c #130D2D",
"6  c #140C2D",
"7  c #10102D",
"8  c #160B31",
"9  c #0E1839",
"0  c #101535",
"q  c #131436",
"w  c #15153B",
"e  c #111A3E",
"r  c #121B42",
"t  c #141A41",
"y  c #141A42",
"u  c #161D48",
"i  c #181C48",
"p  c #1A1D4E",
"a  c #1B1E51",
"s  c #261655",
"d  c #211A53",
"f  c #1C2056",
"g  c #1C2156",
"h  c #1E225A",
"j  c #2B1961",
"k  c #2C1A63",
"l  c #2D1B68",
"z  c #2E1B69",
"x  c #2C1E68",
"c  c #361773",
"v  c #331A70",
"b  c #341B72",
"n  c #361874",
"m  c #29246D",
"M  c #2D2370",
"N  c #2A2670",
"B  c #2E2575",
"V  c #35247E",
"C  c #312C82",
"Z  c #382C8D",
"A  c #392C8E",
"S  c #26398A",
"D  c #30318A",
"F  c #333492",
"G  c #393296",
"H  c #39399F",
"J  c #3D3DAD",
"K  c #421D8D",
"L  c #451E94",
"P  c #402B99",
"I  c #402D9A",
"U  c #4C27A5",
"Y  c #552BBA",
"T  c #4C34B4",
"R  c #4E36BA",
"E  c #2744A2",
"W  c #2845A5",
"Q  c #384ABD",
"!  c #5E1BC0",
"~  c #5E1CC0",
"^  c #601BC3",
"/  c #611CC4",
"(  c #5F21C4",
")  c #5F22C6",
"_  c #5D2ECA",
"`  c #5D2FCA",
"'  c #5834CA",
"]  c #553BCB",
"[  c #5E37D4",
"{  c #583CD0",
"}  c #5D3FDC",
"|  c #6029CC",
" . c #6029CD",
".. c #6523D1",
"X. c #6524D1",
"o. c #6624D0",
"O. c #632BD3",
"+. c #642BD3",
"@. c #6038D9",
"#. c #6039DA",
"$. c #3D4FC9",
"%. c #3C50C9",
"&. c #3E5DE2",
"*. c #3E5EE3",
"=. c #3F5DE5",
"-. c #3F5FE8",
";. c #2D68EC",
":. c #3163E5",
">. c #3264E7",
",. c #3964EC",
"<. c #3A64EC",
"1. c #2D6BF2",
"2. c #2D6CF1",
"3. c #2E6DF3",
"4. c #2E6DF4",
"5. c #3B67F4",
"6. c #3C67F4",
"7. c #356BF6",
"8. c #3B68F4",
"9. c #3C68F4",
"0. c #4E4FDF",
"q. c #4F4FDF",
"w. c #5744D8",
"e. c #5D40DD",
"r. c #544ADD",
"t. c #544ADE",
"y. c #4751D7",
"u. c #4954DE",
"i. c #5A45E0",
"p. c #5946E0",
"a. c #5A46E0",
"s. c #564CE3",
"d. c #564CE4",
"f. c #564DE4",
"g. c #4D58EA",
"h. c #4D59EA",
"j. c #4D59EB",
"k. c #485EED",
"l. c #485EEE",
"z. c #5153E7",
"x. c #5252E7",
"c. c #5253E7",
"v. c #4163F0",
"b. c #4263F1",
/* pixels */
"                                ",
"            1.3.3.;.4.          ",
"        :.7.7.7.7.7.7.7.>.      ",
"      ,.9.8.6.W 9 E 6.5.9.,.    ",
"    *.b.b.=.r & S - e *.b.b.-.  ",
"    l.l.l.u 0 $.Q %.t t l.l.l.  ",
"  u.h.h.h.p f a - i h f h.h.h.y.",
"  0.z.z.J 0 7 F z.D : w H z.z.0.",
"  r.d.m ; % C d.s.s.G * o N s.r.",
"  w.i.X A d M i.i.i.B d A + i.w.",
"  { } X I V 2 T e.R 5 x P + e.] ",
"    #.# j [ z 6 s @ z ' k + #.  ",
"    _ Y > 1 b $ 1 < v 8 > U _   ",
"       .+.n 3 K O.L 3 c +. .    ",
"        ) X.X.X.X.X.X...)       ",
"            ~ ^ / ^ !           "
};
