/* XPM */
static char *_340f98a0e54464b8e259fb821cfa3d1jerh8ANs4x9RmAHM[] = {
/* columns rows colors chars-per-pixel */
"32 32 167 2 ",
"   c None",
".  c #010002",
"X  c #06040E",
"o  c #070511",
"O  c #090513",
"+  c #050916",
"@  c #0D061C",
"#  c #070B1A",
"$  c #0A0A1D",
"%  c #0D0C23",
"&  c #0E0E28",
"*  c #110925",
"=  c #130B2C",
"-  c #0D132E",
";  c #10102E",
":  c #150E32",
">  c #190B35",
",  c #0E1433",
"<  c #121233",
"1  c #14163C",
"2  c #1A113C",
"3  c #12183D",
"4  c #1D0F40",
"5  c #171741",
"6  c #1D1444",
"7  c #151A43",
"8  c #1B1847",
"9  c #1E174B",
"0  c #1B1A4B",
"q  c #1D1C50",
"w  c #250F4E",
"e  c #21134B",
"r  c #260F50",
"t  c #251452",
"y  c #201950",
"u  c #271658",
"i  c #2A155B",
"p  c #231C58",
"a  c #2B185F",
"s  c #16285D",
"d  c #2E1664",
"f  c #301364",
"g  c #34136D",
"h  c #331A6F",
"j  c #351A73",
"k  c #391E7D",
"l  c #262163",
"z  c #232769",
"x  c #222E74",
"c  c #2C2977",
"v  c #272E78",
"b  c #20347C",
"n  c #322E87",
"m  c #362C8A",
"M  c #223A8A",
"N  c #263482",
"B  c #30368F",
"V  c #3D2E96",
"C  c #2F3C99",
"Z  c #373698",
"A  c #3D3099",
"S  c #333B9C",
"D  c #39399F",
"F  c #3A39A1",
"G  c #3D3DAB",
"H  c #431B8C",
"J  c #471994",
"K  c #4B1E9C",
"L  c #432C9C",
"P  c #40319F",
"I  c #541EAD",
"U  c #5B17B7",
"Y  c #571FB4",
"T  c #5B1AB7",
"R  c #5E15BC",
"E  c #5C1ABA",
"W  c #6015BF",
"Q  c #4F20A6",
"!  c #472EA5",
"~  c #4C2BAB",
"^  c #5026AD",
"/  c #4333A6",
"(  c #4A31AC",
")  c #4238AC",
"_  c #5526B5",
"`  c #5428B5",
"'  c #5827BB",
"]  c #592BBF",
"[  c #4935B1",
"{  c #473CB9",
"}  c #493FBF",
"|  c #423DB3",
" . c #5332BF",
".. c #29419C",
"X. c #2D45A7",
"o. c #3542AB",
"O. c #3940AB",
"+. c #3646B3",
"@. c #3748B7",
"#. c #4540BB",
"$. c #661CCE",
"%. c #592FC5",
"&. c #5731C5",
"*. c #5832C4",
"=. c #5735C8",
"-. c #5C32CE",
";. c #543DCB",
":. c #5C36D2",
">. c #5E39D7",
",. c #5E3CDB",
"<. c #6322CD",
"1. c #612BCD",
"2. c #6523D0",
"3. c #642AD3",
"4. c #6133D6",
"5. c #6036D8",
"6. c #3650C3",
"7. c #315AD1",
"8. c #3C59D7",
"9. c #3C58D9",
"0. c #335EDB",
"q. c #2B62DD",
"w. c #2766E3",
"e. c #2969E8",
"r. c #3467ED",
"t. c #3D62EA",
"y. c #2D6DF6",
"u. c #2E6FF8",
"i. c #3D66F2",
"p. c #346CF6",
"a. c #3969F5",
"s. c #326DF8",
"d. c #4449C6",
"f. c #4749CB",
"g. c #4C4BD4",
"h. c #5345D3",
"j. c #5B42DE",
"k. c #4154D7",
"l. c #4255D9",
"z. c #415ADF",
"x. c #5947E0",
"c. c #564CE3",
"v. c #5948E1",
"b. c #4E57EA",
"n. c #4E57E9",
"m. c #455FEF",
"M. c #465FEF",
"N. c #4B5AEB",
"B. c #4A59E9",
"V. c #4C5AEB",
"C. c #4E58E9",
"Z. c #4B5BEC",
"A. c #485DED",
"S. c #495DED",
"D. c #495DEE",
"F. c #4C5AEC",
"G. c #435CE5",
"H. c #5351E6",
"J. c #5251E6",
"K. c #5252E6",
"L. c #5054E7",
"P. c #5054E8",
"I. c #5154E8",
"U. c #4660EF",
"Y. c #4560EF",
"T. c #4362F0",
"R. c #4065F2",
/* pixels */
"                                                                ",
"                          w.w.e.e.e.w.w.                        ",
"                    q.y.u.u.u.u.u.u.u.u.u.y.q.                  ",
"                q.s.s.s.s.s.s.s.s.s.s.s.s.s.s.s.q.              ",
"              r.p.p.p.p.p.p.p.p.p.p.p.p.p.p.p.p.p.r.            ",
"            i.a.a.a.a.a.a.a.a.0.s 7.a.a.a.a.a.a.a.a.i.          ",
"          i.i.i.i.i.i.i.i.i.M # + + b i.i.i.i.i.i.i.i.i.        ",
"        t.i.i.i.i.i.i.R.X.% # - b , $ $ ..i.R.i.i.R.i.R.t.      ",
"      8.T.T.T.T.T.T.6.- # - $ - X., $ - # & @.T.T.T.T.T.T.9.    ",
"      U.U.M.U.M.M.G.7 , , X x M.U.U.N X - , 3 z.M.U.U.M.M.M.    ",
"    l.D.D.D.D.D.D.o.3 7 - D.D.@.x +.D.D.3 3 3 C D.D.D.D.D.D.k.  ",
"    N.Z.N.V.V.N.N.O.& $ S V.7 o v $ 3 Z.+.% % S N.N.V.F.N.V.N.  ",
"    b.b.b.b.V.b.b.O.& 1 q $ < ; z < < o 1 B % Z V.b.b.V.b.b.b.  ",
"  g.P.P.P.P.P.P.P.G & 1 0 < + 1 f.0 o ; ; 7 < d.P.P.P.P.L.P.P.g.",
"  g.H.H.H.H.H.H.D 0 5 1 1 % F H.H.H.G % % < 1 ; Z H.H.H.H.H.H.g.",
"  g.c.c.c.c.#.< X 0 0 % c c.c.c.c.c.c.c.n % < ; O < | c.c.c.c.g.",
"  h.c.c.c.} = $ % 8 8 $ m c.c.c.c.c.c.c.) q l $ % % & { c.c.c.h.",
"  h.x.x.x.9 5 2 y A < $ m x.x.x.x.v.v.v.A $ 0 / p < 6 y v.x.x.h.",
"  ;.j.j.j.6 o = j.[ * $ m j.j.j.j.j.j.j.V % % P j.> o 9 j.j.j.;.",
"  ;.j.j.j.6 o = j.[ % = L j.j.j.j.j.j.j./ = $ L j.> o 9 j.j.j.;.",
"    ,.,.,.6 O = ,.( > ! 2 ! ,.,.,.,.,.( 2 L $ L ,.> o e ,.,.,.  ",
"    >.>.>.6 o = -.>.t O * O 2  .>.:.e o = % . =.>.> o e >.>.>.  ",
"    *.5.5.2 * i L 5.-.e o * * a h O * = X 6 :.5.~ u * 6 5.5.&.  ",
"      4.4.j = j O > %.4.-.i i > @ = * t -.4.-.4 O k . 4 4.4.    ",
"      ] 3.3.d . * * X d ` t = = @ * h i ^ h X * = . e 3.3.]     ",
"        1.3.3.' > O = @ O = @ @ H j X * O @ = O = _ 3.3.1.      ",
"          3.3.2.3.Q @ > r . i 3.3.3.f . w > @ K 3.3.3.<.        ",
"            <.2.2.2.2.J g I 2.2.2.2.2.Y g H 2.2.2.2.<.          ",
"              <.2.2.2.2.<.2.2.2.<.2.2.2.2.2.2.2.2.<.            ",
"                T $.$.$.$.$.$.$.$.$.$.$.$.$.$.$.E               ",
"                    U $.$.$.$.$.$.$.$.$.$.$.U                   ",
"                          R R W W W R R                         "
};
