/* XPM */
static char *_ba0d7e8f8654695bb96a7ec2b73456bHw5nw1fsS1hkhVEC[] = {
/* columns rows colors chars-per-pixel */
"64 64 214 2 ",
"   c None",
".  c #000000",
"X  c #04030B",
"o  c #060713",
"O  c #090614",
"+  c #060814",
"@  c #0C061B",
"#  c #0B091D",
"$  c #080918",
"%  c #0D0B22",
"&  c #0E0B24",
"*  c #110925",
"=  c #140B2D",
"-  c #0D122C",
";  c #0A1027",
":  c #160D33",
">  c #190C35",
",  c #1B0D3B",
"<  c #0F1635",
"1  c #141135",
"2  c #14163B",
"3  c #1A103D",
"4  c #10193C",
"5  c #10102E",
"6  c #1E0F42",
"7  c #1C1544",
"8  c #141B44",
"9  c #1B1B4C",
"0  c #171740",
"q  c #1F1E55",
"w  c #220F48",
"e  c #22124B",
"r  c #251251",
"t  c #281356",
"y  c #2A135A",
"u  c #261A5B",
"i  c #260E50",
"p  c #14204C",
"a  c #16265A",
"s  c #192357",
"d  c #2E1C6B",
"f  c #2B1961",
"g  c #32166B",
"h  c #321A6E",
"j  c #301566",
"k  c #341B73",
"l  c #391D7D",
"z  c #381776",
"x  c #192A64",
"c  c #1D2E6E",
"v  c #1E3277",
"b  c #252265",
"n  c #28256C",
"m  c #222A6C",
"M  c #27246A",
"N  c #212D71",
"B  c #2D2C7D",
"V  c #292A76",
"C  c #36237D",
"Z  c #312478",
"A  c #223279",
"S  c #3D1B83",
"D  c #2E2F83",
"F  c #3A2385",
"G  c #332C84",
"H  c #3B2A8E",
"J  c #392889",
"K  c #27388A",
"L  c #32338D",
"P  c #3D2C94",
"I  c #3F2A95",
"U  c #2D3993",
"Y  c #2B3D96",
"T  c #353494",
"R  c #3B339B",
"E  c #343B9D",
"W  c #39379C",
"Q  c #343CA1",
"!  c #3C3AA6",
"~  c #3C3DAB",
"^  c #3E35A1",
"/  c #3E3FB1",
"(  c #401B87",
")  c #461F94",
"_  c #4B1B9C",
"`  c #4F149E",
"'  c #50159F",
"]  c #40228E",
"[  c #432495",
"{  c #402995",
"}  c #46279D",
"|  c #49239E",
" . c #442A9C",
".. c #5614AB",
"X. c #531DAB",
"o. c #5116A3",
"O. c #5A15B3",
"+. c #5A1CB7",
"@. c #4E1CA0",
"#. c #4B25A3",
"$. c #462CA3",
"%. c #492AA4",
"&. c #4C2CAB",
"*. c #4F25AB",
"=. c #5124AD",
"-. c #5128AF",
";. c #4432A5",
":. c #4435A9",
">. c #4A31AD",
",. c #4339AD",
"<. c #4F2EB1",
"1. c #5523B4",
"2. c #512AB2",
"3. c #5925BB",
"4. c #582ABE",
"5. c #5529B8",
"6. c #4C34B3",
"7. c #443BB2",
"8. c #4B3BBC",
"9. c #493AB9",
"0. c #5135BD",
"q. c #2E409F",
"w. c #1F56BF",
"e. c #2B43A2",
"r. c #2C46AA",
"t. c #3942AE",
"y. c #3541A8",
"u. c #2E4BB4",
"i. c #224EB2",
"p. c #3647B4",
"a. c #3C43B3",
"s. c #334AB5",
"d. c #3E47BB",
"f. c #344DBC",
"g. c #3B4ABE",
"h. c #2254BB",
"j. c #2952BD",
"k. c #2350B3",
"l. c #3050BE",
"z. c #4442BD",
"x. c #4341B9",
"c. c #621BC6",
"v. c #661CCE",
"b. c #661FD0",
"n. c #5A2CC3",
"m. c #5D28C5",
"M. c #4D3CC1",
"N. c #5436C4",
"B. c #5C31CC",
"V. c #5738CA",
"C. c #5E3CDB",
"Z. c #5C38D2",
"A. c #6521CE",
"S. c #602ECE",
"D. c #6524D1",
"F. c #642BD3",
"G. c #6133D6",
"H. c #6036D8",
"J. c #6039D9",
"K. c #394EC5",
"L. c #235CCC",
"P. c #2B57C8",
"I. c #3552C5",
"U. c #3255CA",
"Y. c #3E51CC",
"T. c #235ED2",
"R. c #2E5DD6",
"E. c #335AD4",
"W. c #3A58D6",
"Q. c #2762DC",
"!. c #2D68EB",
"~. c #3C63EC",
"^. c #2D6FF8",
"/. c #2A6FF6",
"(. c #3D66F3",
"). c #346BF6",
"_. c #3869F5",
"`. c #3A68F4",
"'. c #396AF5",
"]. c #306EF8",
"[. c #316DF8",
"{. c #2B70F9",
"}. c #2C70F9",
"|. c #4445C2",
" X c #4A42C5",
".X c #4C45CB",
"XX c #434CCB",
"oX c #4449C8",
"OX c #4D4AD5",
"+X c #5543D4",
"@X c #5B42DE",
"#X c #524BDB",
"$X c #5347D8",
"%X c #4256D9",
"&X c #4250CF",
"*X c #5946E0",
"=X c #564DE4",
"-X c #5849E2",
";X c #425CE4",
":X c #4E56E9",
">X c #475FEE",
",X c #455FEF",
"<X c #4A5BEC",
"1X c #4858E4",
"2X c #5251E6",
"3X c #5054E8",
"4X c #4560EF",
"5X c #4660EF",
"6X c #4362EF",
"7X c #4262F1",
"8X c #4262F1",
"9X c #4461F0",
"0X c #4064F1",
"qX c #4164F2",
/* pixels */
"                                                                                                                                ",
"                                                      w.L.T.T.T.Q.L.L.T.L.w.                                                    ",
"                                              L.Q.{.{.^.}.^.{.{.^.}.{.{.^.{.{./.T.L.                                            ",
"                                        h.Q.^.{.^.}.^.}.^.}.^.^.^.^.^.^.}.^.^.^.^.^.^.Q.h.                                      ",
"                                    h.!.^.^.^.^.^.^.^.^.^.^.^.^.^.^.^.^.^.^.^.^.^.^.^.^.^.!.h.                                  ",
"                                i.!.[.).).).[.].[.^.].).[.[.).[.[.[.^.^.].].[.[.[.[.).).^.^.[.!.k.                              ",
"                              R.).[.[.).).).).).).).).).).[.).).).).).).).).).).).[.).).).[.[.).).Q.                            ",
"                          j.).).).).).).).).).).).).).).).).).).).).).).).).).).).'.).).).).).).).).).j.                        ",
"                        P.'.'.'.'.'.'.'.'.'.'.'.'.).'.'.'.'.'.'.'.'.'.'.'.'.'.'.'.'.).'.'.'.'.'.'.'.'.'.P.                      ",
"                      E.'.'.'.'.'.'.'.'.'.'.'.'.'.'.'.'.'.'.'.'.'.'.'.'.'.'.'.'.'.'.'.'.'.'.'.'.'.'.'.'.'.E.                    ",
"                    E._._._._._._._.'.'._._._._._._._.'._._._.j.a r._._.'._.'.'._._._.'._._._._._._._._._._.E.                  ",
"                  U._._._._._._._._._._._._._._._._._._._.E.a . . . p P._._._._._._._._._._._._._._._._._._._.E.                ",
"                U.`.`.`.`.(.`.(.(.`.`.`.(.(.(.(.(.`.`.~.v . . . a X . . x W.`.(.`.`.`.`.(.(.(.`.`.`.`.(.(.`.(.(.U.              ",
"              u.(.(.(.(.(.(.(.(.(.(.(.(.(.(.(.(.(.(.K o . . c l.E.U.A . . . v ~.(.(.(.(.(.(.(.(.(.(.(.(.(.(.(.(.(.u.            ",
"              ~.(.(.(.(.(.(.(.(.(.(.(.(.(.(.(.(.e.; . . s f.u.< x < e.I.x . . $ Y (.(.(.(.(.(.(.(.(.(.(.(.(.(.(.(.~.            ",
"            W.qXqXqXqXqXqXqXqXqXqXqXqXqXqXqXs.4 . . < u.f.s . . Y . . 8 s.f.p . . - r.qXqXqXqXqXqXqXqXqXqXqXqXqXqXqXW.          ",
"          s.qXqXqXqXqXqXqXqXqXqXqXqXqXqXI.s . . $ e.I.c . . o K ;Xe.% . . s f.r.- . . 8 f.6XqXqXqXqXqXqXqXqXqXqXqXqXqXs.        ",
"          ;X9X9X9X6X9X9X9XqX9X9X9X6XqXW.. . X K I.K . . . N ;X9X9X5X9XK X . . A I.Y + . . f.qX5XqX5X5X9X9X9X9XqXqX9X9X;X        ",
"        p.5X5X>X5X5X5X9X5X5X5X5X5X5XK.A q.m f.Y + . . s W.5X5X5X5X5X5X5X%Xm . . . K f.N Y A p.5X5X5X5X5X9X5X5X5X>X5X5X5Xf.      ",
"        ;X>X>X>X>X>X>X>X>X>X>X>X>X>XK.. 8 ;X- . . 8 g.>X>X>X>X>X>X>X>X>X>X>XY.s . . $ %XN . e.>X>X>X>X>X>X>X>X>X>X>X>X>X;X      ",
"      p.<X<X<X<X<X<X<X<X<X<X<X<X<X<XY.. . Y . X Q <X<X<X<X<X;XN A m &X<X<X<X<X<Xp.o . U & . p.<X<X<X<X<X<X<X<X<X<X<X<X<X<Xp.    ",
"      %X<X<X<X<X<X<X<X<X<X<X<X<X<X<XXX. + Q . X <X<X<X<X<XK o . m . . A <X<X<X<X<X- . E 2 . p.<X<X<X<X<X<X<X<X<X<X<X<X<X<X%X    ",
"      <X<X<X<X<X<X<X<X<X<X<X<X<X<X<XXX. + Q . X 1X<X<XQ ; . . 9 &Xm . . $ U <X<X<X+ . E 2 . a.<X<X<X<X<X<X<X<X<X<X<X<X<X<X<X    ",
"    d.<X<X<X<X<X<X<X<X<X<X<X<X<X<X<XXX. + Q . X <Xd.2 . . 1 y.a.E t.t.8 . . - y.<X9 . U 2 . a.<X<X<X<X<X<X<X<X<X<X<X<X<X<X<Xd.  ",
"    oX<X<X:X<X<X<X<X<X:X<X:X<X:X<X<XXX. + Q . - t.. . X Q |.m . s . s d.t.# . . 9 d.T Q o . a.:X<X:X<X<X<X:X<X<X:X<X<X:X<X:XXX  ",
"    :X:X:X:X:X:X:X:X:X:X:X:X:X:X:X:XoX. + Q . 1 D . m oXQ . . . E + . . L XXB . . X Q :Xm . W :X:X:X:X:X:X:X:X:X:X:X:X:X:X:X:X  ",
"    3X3X3X3X3X3X3X3X:X3X3X3X3X3X3X3XoX. + W . $ a.a.~ 1 . . 2 a.3X|.9 . . # Q z.b . . % ! ! OX3X3X:X:X3X3X3X:X3X3X3X3X3X3X3X3X  ",
"  |.2X2X3X2X3X3X2X3X3X3X3X3X3X2X3X3X|.. + W . $ XXq . . & W 3X3X3X2X3X~ 1 . . 2 ~ a.9 . . 9 ~ 3X3X3X2X3X3X3X2X2X3X3X2X3X2X2X2X/ ",
"  |.2X2X2X2X2X2X2X2X2X3X2X2X2X2Xz.q T X + W . 1 D . X D 2X2X2X2X2X2X2X2X2XT % . . q x.! 5 . . 0 x.2X2X2X2X2X2X2X2X2X2X2X2X2X2Xz.",
"  z.2X2X2X2X2X2X2X2X2X2X2X2XOXb . . T X + W . % T M #X2X2X2X2X2X2X2X2X2X2X2X2XB X . . n x.T + . . q  X2X2X2X2X2X2X2X2X2X2X2X2X|.",
"  z.=X=X=X=X=X=X=X=X=X=X=XB X . . B  X. + W . X #X=X=X=X=X=X=X=X=X=X=X=X=X=X=X=XOXL X . . G z.D . . . n $X=X=X=X=X=X=X=X=X=X=X X",
"  z.=X=X=X=X=X=X=X=X#Xn $ . . u 7.! ! X + W . X #X=X=X=X=X=X=X=X=X=X=X=X=X=X=X=X=XT ~ M . . $ R 9.M . . X b OX=X=X=X=X=X=X=X=X X",
"   X=X=X=X=X=X=X=X=X.X9 . 1 ,.,.7 . G X + R . X $X=X=X=X=X=X=X=X=X=X=X=X=X=X=X=X=X. $ .X Xb . . 1 ! 7.9 . 2  X=X=X=X=X=X=X=X=X X",
"  8.=X-X=X-X-X=X-X=X1 G :.,.f . . = 7.X O R . X $X-X=X-X=X=X-X=X=X-X-X=X-X-X=X=X=X& . B b R ^ = . . 9 ,.:.L 7 =X-X=X=X=X=X=X-XM.",
"  8.-X-X-X-X-X-X-X-XX . 7.1 . X Z -X+X. O R . X $X-X-X-X-X-X-X-X-X-X*X-X-X-X-X-X-X% . R # . +X-XG O . X 8.. X -X*X-X-X-X-X-X-XM.",
"  8.*X*X*X*X*X*X*X*X% . H 1 . ;.*X*X8.. O R . X $X*X*X*X*X*X*X*X*X*X*X*X*X*X*X*X*X% . P 1 . ;.*X*XM.. O P . % *X*X*X*X*X*X*X*X8.",
"  8.@X@X@X*X@X*X@X*X% . P 1 . 7.*X@XM.. O I . X +X*X*X@X*X*X*X*X@X*X@X@X@X@X@X@X*X% . P 1 . :.*X*XV.. O P . # @X@X@X@X*X*X@X@X8.",
"  9.@X@X@X@X@X@X@X@X% . P 1 . ;.@X@XM.. O I . X +X@X@X@X@X@X@X@X@X@X@X@X@X@X@X@X@X% . P 1 . ;.@X@XM.. O P . # @X@X@X@X@X@X@X@X9.",
"    @X@X@X@X@X@X@X@X% . P 1 . ;.@X@X8.. O  .. . Z.@X@X@X@X@X@X@X@X@X@X@X@X@X@X@X@XX . P 1 . ;.@X@XM.. O P . # @X@X@X@X@X@X@X@X  ",
"    @X@X@X@X@X@X@X@X% . P : . ;.@X@X0.. O F . Z @X@X@X@X@X@X@X@X@X@X@X@X@X@X@X@X@XZ . C 3 . ;.@X@XN.. O I . # @X@X@X@X@X@X@X@X  ",
"    0.C.C.C.C.C.C.C.% . P : . $.C.C.N.. . >.H H e 6.C.C.C.C.C.C.C.C.C.C.C.C.C.N.u P C ;.= . $.C.C.0.. O { . # C.C.C.C.C.C.C.N.  ",
"    >.C.C.C.C.C.C.C.% . P : . $.C.C.&.* J C.N.. . . u V.C.C.C.C.C.C.C.C.C.Z.d . . . Z.C.X . $.C.C.0.. O { . # C.C.C.C.C.C.C.>.  ",
"      C.C.C.C.C.C.C.% . H : . $.C.C.N. .7 . d 6.k . . X k C.C.C.C.C.C.C.F O . . u &.C X . . &.C.C.0.. O { . # C.C.C.C.C.C.C.    ",
"      V.J.C.C.C.C.J.% . H : . } C.J.C.<.* . . *  .&.u . . @ C N.C.J.{ * . . 7 &.%., . . : $.J.C.J.0.. o { . # C.J.C.C.C.C.V.    ",
"      %.J.J.H.H.J.J.% . F # e Z.H.H.H.J.H.} = . . 3 %.%., . . <.5.3 . . = } &.r . . # H J.J.H.J.J.H.r . F . # H.H.H.H.H.H.&.    ",
"        B.G.H.G.H.H.X . } %.k > k H.H.H.H.H.H.F @ . . , } %.%.h . . O ] &.d . . X k H.G.H.H.G.H.F , l [ 2.. @ H.H.H.H.H.B.      ",
"        } G.G.G.G.G.= l 2.G., . . % ] G.G.G.G.G.G.k X : #.} % . . l 2.l . . . f B.G.G.G.G.G.} = . . * G.{ . O G.G.G.G.G.&.      ",
"          B.G.G.G.G.5.e . = #.} > . . > #.G.G.G.G.G.G.[ > . . t 2.[ O . . h n.G.G.G.G.G.&.6 . . % [ &.6 . . : G.G.G.G.B.        ",
"          #.G.G.G.G.S.y X . . f -.[ @ . . e 2.G.G.} , . . , #.#.> . . y [ k 6 ] G.G.n.t . . X S -.k . . X h B.G.G.G.G.}         ",
"            4.F.F.F.F.F.S.g . . . z -.l . . . f r . . * [ *.y . . , | 4.n.@ . . , j . . . k -.S X . . y n.F.F.F.F.F.4.          ",
"              F.F.F.F.F.F.F.4.r . . X ( -.g . . . X S -.g . . X S 1.= . e =.) @ . . . y =.) % . . 6 -.F.F.F.F.F.F.F.            ",
"              #.F.F.F.F.F.F.F.F.=., . . * ) #., t =.S X . . y m.F.3.e . . . z =.g > | | , . . = | F.F.F.F.F.F.F.F.|             ",
"                =.F.F.F.F.F.F.F.F.F.) = . . , 3.=.@ . . w =.F.F.F.F.F.3.r . . X _ m.e . . @ ( F.F.F.F.F.F.F.F.F.=.              ",
"                  1.F.D.F.D.D.F.D.F.F.D.S O . g > . : _ D.D.D.F.F.F.D.F.F.=., . O l . X z D.F.F.F.D.F.F.F.F.F.1.                ",
"                    1.D.D.D.D.D.D.D.D.D.D.A.y z j z D.D.D.D.D.D.D.D.D.D.D.D.D.( y z i m.D.D.D.D.D.D.D.D.D.D.1.                  ",
"                      X.D.D.D.D.D.D.D.D.D.D.+._ _ A.D.D.D.D.D.D.D.D.D.D.D.D.D.D.@._ X.D.D.D.D.D.D.D.D.D.D.+.                    ",
"                        X.D.D.D.D.D.D.D.D.D.D.D.D.D.D.D.D.D.D.D.D.D.D.D.D.D.D.D.D.D.D.D.D.D.D.D.D.D.D.D.X.                      ",
"                          _ A.D.D.D.A.A.D.D.D.D.A.D.A.A.D.A.D.D.A.A.A.D.D.v.D.D.A.A.A.A.D.D.D.D.A.A.A._                         ",
"                              +.v.v.v.v.v.v.v.v.v.b.v.v.v.b.v.v.v.b.v.v.v.b.v.b.b.v.A.b.v.v.b.v.v.+.                            ",
"                                o.c.v.v.v.v.v.v.v.v.v.v.v.v.v.v.v.v.v.v.v.v.v.v.v.v.v.v.v.v.v.c.o.                              ",
"                                    ' c.v.v.v.v.v.v.v.v.v.v.v.v.v.v.v.v.v.v.v.v.v.v.v.v.v.c...                                  ",
"                                        ` +.v.v.v.v.v.v.v.v.v.v.v.v.v.v.v.v.v.v.v.v.v.+.`                                       ",
"                                              o.O.v.v.v.v.v.v.v.v.v.v.v.v.v.v.v...'                                             ",
"                                                      ......O.O.O...........                                                    "
};
